# xmcd CD database file
#
# Track frame offsets:
#	150
#	17127
#	37382
#	54994
#	71726
#	96312
#	115538
#	137961
#	160257
#	181842
#	202261
#	222712
#	242422
#	263580
#	284959
#	300273
#
# Disc length: 4214 seconds
#
# Revision: 0
# Processed by: cddbd v1.5.2PL0 Copyright (c) Steve Scherf et al.
# Submitted via: CDex 1.70beta2
#
DISCID=f5107410
DTITLE=Wolfgang Buschner liest Karl May - Der Ölprinz
DYEAR=2006
DGENRE=Hörbuch Karl May
TTITLE0=Der Ölprinz-CD03-01
TTITLE1=Der Ölprinz-CD03-02
TTITLE2=Der Ölprinz-CD03-03
TTITLE3=Der Ölprinz-CD03-04
TTITLE4=Der Ölprinz-CD03-05
TTITLE5=Der Ölprinz-CD03-06
TTITLE6=Der Ölprinz-CD03-07
TTITLE7=Der Ölprinz-CD03-08
TTITLE8=Der Ölprinz-CD03-09
TTITLE9=Der Ölprinz-CD03-10
TTITLE10=Der Ölprinz-CD03-11
TTITLE11=Der Ölprinz-CD03-12
TTITLE12=Der Ölprinz-CD03-13
TTITLE13=Der Ölprinz-CD03-14
TTITLE14=Der Ölprinz-CD03-15
TTITLE15=Der Ölprinz-CD03-16 bws
EXTD=YEAR: 2006
EXTT0=
EXTT1=
EXTT2=
EXTT3=
EXTT4=
EXTT5=
EXTT6=
EXTT7=
EXTT8=
EXTT9=
EXTT10=
EXTT11=
EXTT12=
EXTT13=
EXTT14=
EXTT15=
PLAYORDER=
